<?xml version="1.0" encoding="utf-8"?>
<!-- Generator: Adobe Illustrator 16.0.4, SVG Export Plug-In . SVG Version: 6.00 Build 0)  -->
<!DOCTYPE svg PUBLIC "-//W3C//DTD SVG 1.1//EN" "http://www.w3.org/Graphics/SVG/1.1/DTD/svg11.dtd">
<svg version="1.1" id="Layer_1" xmlns="http://www.w3.org/2000/svg" xmlns:xlink="http://www.w3.org/1999/xlink" x="0px" y="0px"
	 width="130.296px" height="156px" viewBox="0 0 130.296 156" enable-background="new 0 0 130.296 156" xml:space="preserve">
<g>
	<path fill="#777777" d="M112.011,0c3.004,1.145,4.061,3.334,4.031,6.512C115.935,18.221,116,29.932,116,41.642
		c0,0.573,0,1.146,0,1.779c-0.432,0.041-0.754,0.096-1.076,0.096c-2.656,0.007-5.314-0.026-7.971,0.021
		c-0.865,0.015-1.185-0.239-1.146-1.125c0.063-1.409,0.017-2.823,0.017-4.234c0-8.845-0.021-17.689,0.025-26.534
		c0.007-1.158-0.334-1.459-1.469-1.458c-30.895,0.029-61.79,0.035-92.685-0.012c-1.445-0.002-1.469,0.621-1.468,1.703
		c0.017,43.518,0.015,87.036,0.015,130.554c0,0.789,0.035,1.58-0.009,2.367c-0.044,0.773,0.286,1.062,1.026,0.979
		c0.205-0.023,0.415-0.004,0.623-0.004c22.756,0,45.511,0,68.267,0c1.857,0,1.855-0.002,1.854-1.858
		c-0.002-6.146-0.006-12.292,0-18.438c0.002-2.125-0.18-1.904,1.972-1.906c6.728-0.006,13.454-0.002,20.181-0.002
		c1.659,0,1.664-0.004,1.665-1.717c0.003-8.678,0.003-17.356,0.005-26.035c0-0.448,0-0.896,0-1.438c3.418,0,6.715,0,10.109,0
		c0.021,0.423,0.062,0.823,0.062,1.224c0.002,10.008-0.027,20.016,0.023,30.021c0.012,2.111-0.684,3.734-2.262,5.133
		c-6.95,6.161-13.856,12.371-20.779,18.564c-1.545,1.383-3.05,2.812-4.643,4.138c-1.101,0.916-2.32,1.688-3.486,2.524
		c-26.994,0-53.987,0-80.98,0c-3.043-1.246-3.875-3.573-3.871-6.746C0.066,101.863,0.045,54.492,0.047,7.121
		c0-0.83-0.12-1.694,0.07-2.481c0.236-0.981,0.551-2.05,1.173-2.8C1.94,1.054,2.994,0.6,3.871,0C39.917,0,75.964,0,112.011,0z"/>
	<path fill="#777777" d="M130.287,48.715c0,0.494,0,0.899,0,1.304c0,12.702-0.015,25.405,0.026,38.108
		c0.004,1.205-0.229,1.618-1.554,1.617c-27.19-0.043-54.381-0.033-81.571-0.033c-0.446,0-0.893,0-1.427,0
		c0-13.727,0-27.316,0-40.996C73.914,48.715,102.029,48.715,130.287,48.715z M80.132,82.161c4.398,0.468,8.662,0.635,12.854-0.438
		c3.519-0.902,6.296-2.847,7.985-6.188c1.688-3.343,1.814-6.853,1.143-10.425c-0.703-3.747-2.973-6.316-6.408-7.834
		c-5.056-2.233-10.304-1.346-15.576-0.977C80.132,64.975,80.132,73.504,80.132,82.161z M58.377,56.322c0,8.711,0,17.271,0,25.853
		c1.587,0,3.067,0,4.742,0c0-3.263,0-6.468,0-9.706c2.808,0.063,5.396,0.076,7.865-1.065c3.604-1.664,5.311-4.659,4.835-8.757
		c-0.387-3.348-2.983-5.916-6.694-6.523C65.564,55.542,62.017,55.902,58.377,56.322z M111.576,82.18c0-3.75,0-7.38,0-11.163
		c3.252,0,6.379,0,9.523,0c0-1.34,0-2.521,0-3.857c-3.221,0-6.355,0-9.505,0c0-2.463,0-4.767,0-7.177c0.526,0,0.976,0,1.425,0
		c2.613,0,5.229,0.025,7.844-0.031c0.36-0.008,0.989-0.394,1.02-0.66c0.119-1.048,0.05-2.117,0.05-3.154c-5.185,0-10.181,0-15.185,0
		c0,8.729,0,17.346,0,26.042C108.335,82.18,109.85,82.18,111.576,82.18z"/>
	<path fill="#777777" d="M84.988,59.817c3.354-0.394,6.584-0.508,9.438,1.655c1.379,1.044,2.259,2.434,2.58,4.115
		c0.685,3.566,0.66,7.073-1.793,10.038c-0.787,0.951-1.909,1.765-3.045,2.255c-2.248,0.968-4.666,0.992-7.18,0.672
		C84.988,72.313,84.988,66.119,84.988,59.817z"/>
	<path fill="#777777" d="M63.167,68.423c0-2.896,0-5.707,0-8.5c2.538-0.9,5.87-0.237,7.165,1.398
		c0.986,1.246,1.008,3.89,0.043,5.305C69.143,68.434,65.93,69.254,63.167,68.423z"/>
</g>
<rect x="18.906" y="48.715" fill="#777777" width="16.25" height="29.275"/>
<polygon fill="#777777" points="13.438,72.723 26.879,89.744 40.625,72.723 "/>
</svg>
